# xmcd
# 
# Track frame offsets:
#     150
#     15181
#     37793
#     62593
#     75085
#     96626
#     117379
#     144450
#     165284
#     183665
#     205919
#     243801
# 
# Disc length: 3498
# 
# Revision: 0
# Processed by: cddbd v1.5.2PL0 Copyright (c) Steve Scherf et al.
# Submitted via: fre:ac v1.0.17
# 
DISCID=8a0da80c
DTITLE=Sweet Betty, Francine Reed Sandra Hall - Live At Blind Willie's 
DYEAR=0
DGENRE=Blues
TTITLE0=They Call Me Sweet Betty 
TTITLE1=Bad Company 
TTITLE2=Brown Liquor 
TTITLE3=All Of Me
TTITLE4=Let's Work Together 
TTITLE5=I Want You To Love Me
TTITLE6=Since I Fell For You
TTITLE7=For Your Precious Love 
TTITLE8=Pump Up Your Love
TTITLE9=Ask Me No Questions 
TTITLE10=Wang Dang Doodle
TTITLE11=Sweet HomeChicago 
EXTD=All Tracks singles potential - Soul in the Blues 
EXTT0=
EXTT1=
EXTT2=
EXTT3=
EXTT4=
EXTT5=
EXTT6=
EXTT7=
EXTT8=
EXTT9=
EXTT10=
EXTT11=
PLAYORDER=
